<svg xmlns="http://www.w3.org/2000/svg" width="24" height="16.646" viewBox="0 0 24 16.646"><defs><style>.a{fill:#fff;}</style></defs><g transform="translate(0 -78.439)"><g transform="translate(0 85.793)"><path class="a" d="M23.031,235.318H.969a.969.969,0,1,0,0,1.939H23.031a.969.969,0,1,0,0-1.939Z" transform="translate(0 -235.318)"/></g><g transform="translate(0 78.439)"><path class="a" d="M23.031,78.439H.969a.969.969,0,1,0,0,1.939H23.031a.969.969,0,1,0,0-1.939Z" transform="translate(0 -78.439)"/></g><g transform="translate(0 93.146)"><path class="a" d="M23.031,392.2H.969a.969.969,0,1,0,0,1.939H23.031a.969.969,0,1,0,0-1.939Z" transform="translate(0 -392.197)"/></g></g></svg>